<?xml version="1.0" encoding="utf-8"?>
<!-- Generator: Adobe Illustrator 19.0.0, SVG Export Plug-In . SVG Version: 6.00 Build 0)  -->
<svg version="1.1" id="Layer_3" xmlns="http://www.w3.org/2000/svg" xmlns:xlink="http://www.w3.org/1999/xlink" x="0px" y="0px"
	 viewBox="0 0 1000 1000" style="enable-background:new 0 0 1000 1000;" xml:space="preserve">
<style type="text/css">
	.st0{fill:url(#XMLID_18_);}
	.st1{fill:url(#XMLID_19_);}
	.st2{fill:url(#XMLID_20_);}
</style>
<linearGradient id="XMLID_18_" gradientUnits="userSpaceOnUse" x1="1.059152e-007" y1="591.9393" x2="816.4006" y2="591.9393">
	<stop  offset="0" style="stop-color:#9E1E67"/>
	<stop  offset="0.5075" style="stop-color:#5F2888"/>
	<stop  offset="0.9333" style="stop-color:#4A156B"/>
</linearGradient>
<path id="XMLID_7_" class="st0" d="M0,183.9c0,0,287.5,203.6,582.7,261.6c0,0,3.7,252,233.7,554.5c0,0-494.8-18.9-670.7-134.8
	C145.7,865.2,4.6,453.2,0,183.9z"/>
<linearGradient id="XMLID_19_" gradientUnits="userSpaceOnUse" x1="910" y1="498.0608" x2="93.5994" y2="498.0608">
	<stop  offset="0.2179" style="stop-color:#9B5D06"/>
	<stop  offset="0.5744" style="stop-color:#E4891B"/>
	<stop  offset="1" style="stop-color:#F9ED32"/>
</linearGradient>
<path id="XMLID_8_" class="st1" d="M93.6,90c0,0,287.5,203.6,582.7,261.6c0,0,3.7,252,233.7,554.5c0,0-494.8-18.9-670.7-134.8
	C239.3,771.3,98.2,359.3,93.6,90z"/>
<linearGradient id="XMLID_20_" gradientUnits="userSpaceOnUse" x1="183.5994" y1="408.0608" x2="1000" y2="408.0608">
	<stop  offset="0" style="stop-color:#F15A29"/>
	<stop  offset="0.5721" style="stop-color:#A92330"/>
</linearGradient>
<path id="XMLID_67_" class="st2" d="M183.6,0c0,0,287.5,203.6,582.7,261.6c0,0,3.7,252,233.7,554.5c0,0-494.8-18.9-670.7-134.8
	C329.3,681.3,188.2,269.3,183.6,0z"/>
</svg>
